<svg width="48" height="48" viewBox="0 0 48 48" fill="none" xmlns="http://www.w3.org/2000/svg">
<path d="M36 2.25C33.4658 2.25 31.1325 3.102 29.25 4.521V0.75H11.6895L3.75 8.6895V17.3258C2.04075 17.6745 0.75 19.1895 0.75 21V43.5C0.75 45.5677 2.43225 47.25 4.5 47.25H43.5C45.5677 47.25 47.25 45.5677 47.25 43.5V13.5C47.25 7.29675 42.2033 2.25 36 2.25ZM39.402 20.7863C40.491 18.7725 41.1128 16.542 41.2245 14.25H45.72C45.4665 17.523 43.5675 20.469 40.6882 22.0507C40.368 21.5295 39.9277 21.0982 39.402 20.7863ZM28.9748 20.25C27.3945 18.6068 26.457 16.506 26.2868 14.25H30.7747C30.8738 16.3605 31.3912 18.3713 32.3197 20.25H28.9748ZM34.0935 3.93975C33.5303 4.64175 32.8875 5.58 32.3115 6.75H28.9807C30.3352 5.3415 32.1045 4.33575 34.0935 3.93975ZM45.7118 12.75H41.2192C41.1382 11.049 40.797 9.546 40.3245 8.25H44.2028C45.0495 9.5685 45.5858 11.1015 45.7118 12.75ZM39.7192 12.75H32.2808C32.3738 11.0227 32.7713 9.51525 33.2955 8.25H38.7052C39.2287 9.51525 39.6263 11.0227 39.7192 12.75ZM34.0222 6.75C34.7445 5.463 35.517 4.551 36 4.04475C36.483 4.551 37.2555 5.463 37.9778 6.75H34.0222ZM27.7972 8.25H31.6755C31.2023 9.546 30.861 11.049 30.7808 12.75H26.2882C26.4142 11.1015 26.9505 9.5685 27.7972 8.25ZM34.0177 20.25C32.9715 18.39 32.3857 16.3778 32.2747 14.25H39.7253C39.6135 16.3965 39.0187 18.4245 37.9567 20.2965C37.8053 20.2778 37.656 20.25 37.5 20.25H34.0177ZM43.0192 6.75H39.6885C39.1133 5.58 38.4697 4.64175 37.9065 3.93975C39.8955 4.33575 41.6647 5.3415 43.0192 6.75ZM27.75 5.877C25.8945 7.884 24.75 10.5577 24.75 13.5C24.75 15.9698 25.5525 18.312 27.0143 20.25H23.25V11.25H6.75V17.25H5.25V9.75H12.75V2.25H27.75V5.877ZM21.75 20.25H15.375L14.25 18.75C13.5457 17.811 12.4237 17.25 11.25 17.25H8.25V12.75H21.75V20.25ZM6.3105 8.25L11.25 3.3105V8.25H6.3105ZM4.5 18.75H11.25C11.9543 18.75 12.627 19.0868 13.05 19.65L14.625 21.75H37.5C38.4765 21.75 39.3015 22.3792 39.612 23.25H2.25V21C2.25 19.7595 3.2595 18.75 4.5 18.75ZM4.5 45.75C3.2595 45.75 2.25 44.7405 2.25 43.5V24.75H39.75V43.5C39.75 44.3438 40.0298 45.123 40.5015 45.75H4.5ZM45.75 43.5C45.75 44.7405 44.7405 45.75 43.5 45.75C42.2595 45.75 41.25 44.7405 41.25 43.5V24C41.25 23.82 41.2215 23.6467 41.1968 23.4735C43.1302 22.464 44.6955 20.9295 45.75 19.0928V43.5Z" fill="#DD2B1C"/>
<path d="M33.75 9.75H35.25V11.25H33.75V9.75Z" fill="#DD2B1C"/>
<path d="M36.75 9.75H38.25V11.25H36.75V9.75Z" fill="#DD2B1C"/>
<path d="M33.75 15.75H35.25V17.25H33.75V15.75Z" fill="#DD2B1C"/>
<path d="M36.75 15.75H38.25V17.25H36.75V15.75Z" fill="#DD2B1C"/>
<path d="M3.75 20.25H5.25V21.75H3.75V20.25Z" fill="#DD2B1C"/>
<path d="M6.75 20.25H8.25V21.75H6.75V20.25Z" fill="#DD2B1C"/>
<path d="M9.75 20.25H11.25V21.75H9.75V20.25Z" fill="#DD2B1C"/>
<path d="M42.75 42.75H44.25V44.25H42.75V42.75Z" fill="#DD2B1C"/>
<path d="M42.75 39.75H44.25V41.25H42.75V39.75Z" fill="#DD2B1C"/>
<path d="M42.75 36.75H44.25V38.25H42.75V36.75Z" fill="#DD2B1C"/>
<path d="M3.75 44.25H14.25V36.75H3.75V44.25ZM5.25 38.25H12.75V42.75H5.25V38.25Z" fill="#DD2B1C"/>
<path d="M14.25 3.75H15.75V5.25H14.25V3.75Z" fill="#DD2B1C"/>
<path d="M17.25 3.75H26.25V5.25H17.25V3.75Z" fill="#DD2B1C"/>
<path d="M14.25 6.75H24.75V8.25H14.25V6.75Z" fill="#DD2B1C"/>
</svg>
